<svg width="359" height="356" viewBox="0 0 359 356" fill="none" xmlns="http://www.w3.org/2000/svg">
    <path d="M358.858 315.164H0.164062V315.373H358.858V315.164Z" fill="#EBEBEB"/>
    <path d="M170.184 274.99H31.6633C30.5782 274.987 29.5381 274.444 28.7715 273.48C28.0048 272.516 27.5742 271.209 27.5742 269.846V25.3454C27.5837 23.9906 28.0184 22.6953 28.7841 21.7407C29.5497 20.786 30.5844 20.2493 31.6633 20.2469H170.184C171.27 20.2469 172.312 20.7889 173.08 21.7534C173.849 22.718 174.28 24.0263 174.28 25.3904V269.846C174.28 271.21 173.849 272.519 173.08 273.483C172.312 274.448 171.27 274.99 170.184 274.99ZM31.6633 20.47wQbNPTDJp9hMYdvogK2hAUiHsGeiybwaWe36bwtRQ3UTpYV7YuZ8FV5j9nauFCWwcjM6dTzpL5s2N79Rp5unwdMvc8ZKU.3454V269.846C27.7536 271.149 28.1653 272.399 28.8983 273.321C29.6313 274.243 30.6257 274.762 31.6633 274.765H170.184C171.222 274.762 172.217 274.243 172.952 273.321C173.686 272.4 174.099 271.15 174.101 269.846V25.3454C174.099 24.0417 173.686 22.7921 172.952 21.8703C172.217 20.9484 171.222 20.4295 170.184 20.4271H31.6633Z" fill="#EBEBEB"/>
    <path d="M325.362 274.99H186.835C185.749 274.987 184.708 274.47wQbNPTDJp9hMYdvogK2hAUiHsGeiybwaWe36bwtRQ3UTpYV7YuZ8FV5j9nauFCWwcjM6dTzpL5s2N79Rp5unwdMvc8ZKU 22.6945 183.953 21.7401C184.72 20.7857 185.755 20.2492 186.835 20.2469H325.362C326.47wQbNPTDJp9hMYdvogK2hAUiHsGeiybwaWe36bwtRQ3UTpYV7YuZ8FV5j9nauFCWwcjM6dTzpL5s2N79Rp5unwdMvc8ZKU846C329.47wQbNPTDJp9hMYdvogK2hAUiHsGeiybwaWe36bwtRQ3UTpYV7YuZ8FV5j9nauFCWwcjM6dTzpL5s2N79Rp5unwdMvc8ZKU835 20.47wQbNPTDJp9hMYdvogK2hAUiHsGeiybwaWe36bwtRQ3UTpYV7YuZ8FV5j9nauFCWwcjM6dTzpL5s2N79Rp5unwdMvc8ZKU3454V269.846C182.92 271.15 183.333 272.4 184.067 273.321C184.801 274.243 185.796 274.762 186.835 274.765H325.362C326.401 274.762 327.396 274.243 328.13 273.321C328.864 272.4 329.277 271.15 329.279 269.846V25.3454C329.277 24.0417 328.864 22.7921 328.13 21.8703C327.396 20.9484 326.401 20.4295 325.362 20.4271H186.835Z" fill="#EBEBEB"/>
    <path d="M143.957 323.74H125.305V323.949H143.957V323.74Z" fill="#EBEBEB"/>
    <path d="M76.6096 321.299H37.7988V321.508H76.6096V321.299Z" fill="#EBEBEB"/>
    <path d="M124.587 332.108H105.705V332.316H124.587V332.108Z" fill="#EBEBEB"/>
    <path d="M213.27 330.595H185.414V330.804H213.27V330.595Z" fill="#EBEBEB"/>
    <path d="M227.327 330.595H219.658V330.804H227.327V330.595Z" fill="#EBEBEB"/>
    <path d="M322.926 326.793H283.785V327.002H322.926V326.793Z" fill="#EBEBEB"/>
    <path d="M83.1203 113.632H136.207C137.286 113.632 138.32 114.17 139.083 115.128C139.846 116.085 140.275 117.384 140.275 118.739V315.165H79.0742V118.73C79.0761 117.382 79.5025 116.089 80.2605 115.134C81.0185 114.179 82.0465 113.639 83.1203 113.632Z" fill="#F5F5F5"/>
    <path d="M92.0339 125.54H84.1426V147.6H92.0339V125.54Z" fill="#EBEBEB"/>
    <path d="M135.192 125.54H127.301V147.6H135.192V125.54Z" fill="#EBEBEB"/>
    <path d="M106.417 125.54H98.5254V147.6H106.417V125.54Z" fill="#EBEBEB"/>
    <path d="M120.809 125.54H112.918V147.6H120.809V125.54Z" fill="#EBEBEB"/>
    <path d="M92.0339 160.365H84.1426V182.425H92.0339V160.365Z" fill="#EBEBEB"/>
    <path d="M135.192 160.365H127.301V182.425H135.192V160.365Z" fill="#EBEBEB"/>
    <path d="M106.417 160.365H98.5254V182.425H106.417V160.365Z" fill="#EBEBEB"/>
    <path d="M120.809 160.365H112.918V182.425H120.809V160.365Z" fill="#EBEBEB"/>
    <path d="M92.0339 195.189H84.1426V217.249H92.0339V195.189Z" fill="#EBEBEB"/>
    <path d="M135.192 195.189H127.301V217.249H135.192V195.189Z" fill="#EBEBEB"/>
    <path d="M106.417 195.189H98.5254V217.249H106.417V195.189Z" fill="#EBEBEB"/>
    <path d="M120.809 195.189H112.918V217.249H120.809V195.189Z" fill="#EBEBEB"/>
    <path d="M92.0339 230.013H84.1426V252.073H92.0339V230.013Z" fill="#EBEBEB"/>
    <path d="M135.192 230.013H127.301V252.073H135.192V230.013Z" fill="#EBEBEB"/>
    <path d="M106.417 230.013H98.5254V252.073H106.417V230.013Z" fill="#EBEBEB"/>
    <path d="M120.809 230.013H112.918V252.073H120.809V230.013Z" fill="#EBEBEB"/>
    <path d="M92.0339 264.838H84.1426V286.898H92.0339V264.838Z" fill="#EBEBEB"/>
    <path d="M135.192 264.838H127.301V286.898H135.192V264.838Z" fill="#EBEBEB"/>
    <path d="M106.417 264.838H98.5254V286.898H106.417V264.838Z" fill="#EBEBEB"/>
    <path d="M120.809 264.838H112.918V286.898H120.809V264.838Z" fill="#EBEBEB"/>
    <path d="M271.338 131.945H309.359C309.794 131.945 310.224 132.052 310.625 132.261C311.026 132.47wQbNPTDJp9hMYdvogK2hAUiHsGeiybwaWe36bwtRQ3UTpYV7YuZ8FV5j9nauFCWwcjM6dTzpL5s2N79Rp5unwdMvc8ZKU.012 312.666 135.552 312.666 136.097V315.165H268.066V136.106C268.064 135.011 268.407 133.959 269.02 133.18C269.632 132.4 270.466 131.957 271.338 131.945Z" fill="#F5F5F5"/>
    <path d="M280.891 142.772H273.717V162.823H280.891V142.772Z" fill="#EBEBEB"/>
    <path d="M293.971 142.772H286.797V162.823H293.971V142.772Z" fill="#EBEBEB"/>
    <path d="M307.051 142.772H299.877V162.823H307.051V142.772Z" fill="#EBEBEB"/>
    <path d="M280.891 174.435H273.717V194.486H280.891V174.435Z" fill="#EBEBEB"/>
    <path d="M293.971 174.435H286.797V194.486H293.971V174.435Z" fill="#EBEBEB"/>
    <path d="M307.051 174.435H299.877V194.486H307.051V174.435Z" fill="#EBEBEB"/>
    <path d="M280.891 206.097H273.717V226.149H280.891V206.097Z" fill="#EBEBEB"/>
    <path d="M293.971 206.097H286.797V226.149H293.971V206.097Z" fill="#EBEBEB"/>
    <path d="M307.051 206.097H299.877V226.149H307.051V206.097Z" fill="#EBEBEB"/>
    <path d="M280.891 237.751H273.717V257.802H280.891V237.751Z" fill="#EBEBEB"/>
    <path d="M293.971 237.751H286.797V257.802H293.971V237.751Z" fill="#EBEBEB"/>
    <path d="M307.051 237.751H299.877V257.802H307.051V237.751Z" fill="#EBEBEB"/>
    <path d="M280.891 269.414H273.717V289.465H280.891V269.414Z" fill="#EBEBEB"/>
    <path d="M293.971 269.414H286.797V289.465H293.971V269.414Z" fill="#EBEBEB"/>
    <path d="M307.051 269.414H299.877V289.465H307.051V269.414Z" fill="#EBEBEB"/>
    <path d="M184.237 80.6989H245.997C247.251 80.6989 248.454 81.3243 249.34 82.4375C250.227 83.5508 250.725 85.0607 250.725 86.635V315.164H179.51V86.635C179.51 85.0607 180.008 83.5508 180.894 82.4375C181.781 81.3243 182.984 80.6989 184.237 80.6989Z" fill="#F5F5F5"/>
    <path d="M194.604 94.5529H185.422V120.216H194.604V94.5529Z" fill="#EBEBEB"/>
    <path d="M244.813 94.5529H235.631V120.216H244.813V94.5529Z" fill="#EBEBEB"/>
    <path d="M211.343 94.5529H202.16V120.216H211.343V94.5529Z" fill="#EBEBEB"/>
    <path d="M228.077 94.5529H218.895V120.216H228.077V94.5529Z" fill="#EBEBEB"/>
    <path d="M194.604 135.07H185.422V160.734H194.604V135.07Z" fill="#EBEBEB"/>
    <path d="M244.813 135.07H235.631V160.734H244.813V135.07Z" fill="#EBEBEB"/>
    <path d="M211.343 135.07H202.16V160.734H211.343V135.07Z" fill="#EBEBEB"/>
    <path d="M228.077 135.07H218.895V160.734H228.077V135.07Z" fill="#EBEBEB"/>
    <path d="M194.604 175.587H185.422V201.251H194.604V175.587Z" fill="#EBEBEB"/>
    <path d="M244.813 175.587H235.631V201.251H244.813V175.587Z" fill="#EBEBEB"/>
    <path d="M211.343 175.587H202.16V201.251H211.343V175.587Z" fill="#EBEBEB"/>
    <path d="M228.077 175.587H218.895V201.251H228.077V175.587Z" fill="#EBEBEB"/>
    <path d="M194.604 216.105H185.422V241.769H194.604V216.105Z" fill="#EBEBEB"/>
    <path d="M244.813 216.105H235.631V241.769H244.813V216.105Z" fill="#EBEBEB"/>
    <path d="M211.343 216.105H202.16V241.769H211.343V216.105Z" fill="#EBEBEB"/>
    <path d="M228.077 216.105H218.895V241.769H228.077V216.105Z" fill="#EBEBEB"/>
    <path d="M194.604 256.613H185.422V282.276H194.604V256.613Z" fill="#EBEBEB"/>
    <path d="M244.813 256.613H235.631V282.276H244.813V256.613Z" fill="#EBEBEB"/>
    <path d="M211.343 256.613H202.16V282.276H211.343V256.613Z" fill="#EBEBEB"/>
    <path d="M228.077 256.613H218.895V282.276H228.077V256.613Z" fill="#EBEBEB"/>
    <path d="M179.511 164.67H140.277V315.165H179.511V164.67Z" fill="#E6E6E6"/>
    <path d="M268.063 180.785H250.73V315.165H268.063V180.785Z" fill="#E6E6E6"/>
    <path d="M79.0549 315.164H44.7207V252.335L79.0549 237.751V315.164Z" fill="#E6E6E6"/>
    <path d="M302.186 55.72C307.803 49.8378 319.231 38.3618 309.402 36.7224C299.962 35.146 286.051 42.082 281.611 47wQbNPTDJp9hMYdvogK2hAUiHsGeiybwaWe36bwtRQ3UTpYV7YuZ8FV5j9nauFCWwcjM6dTzpL5s2N79Rp5unwdMvc8ZKU55.1435C251.789 52.0357 235.504 52.6123 246.731 61.3769H303.721C303.721 61.3769 315.486 52.1438 302.186 55.72Z" fill="#F5F5F5"/>
    <path d="M45.0741 86.0045C45.0311 82.6535 44.7441 76.0958 49.4645 75.195C53.9984 74.2942 57.076 78.2487 56.5595 81.7167C58.8265 78.3928 61.8825 75.2401 67.0908 72.7088C75.1184 68.7634 66.1869 83.0859 64.1064 85.7162C67.47wQbNPTDJp9hMYdvogK2hAUiHsGeiybwaWe36bwtRQ3UTpYV7YuZ8FV5j9nauFCWwcjM6dTzpL5s2N79Rp5unwdMvc8ZKU.0045Z" fill="#FAFAFA"/>
    <path d="M144.411 47wQbNPTDJp9hMYdvogK2hAUiHsGeiybwaWe36bwtRQ3UTpYV7YuZ8FV5j9nauFCWwcjM6dTzpL5s2N79Rp5unwdMvc8ZKU85.3697 14.518C90.9007 13.2839 97.429 25.9129 97.5653 32.5337C100.291 16.6889 107.824 -3.47wQbNPTDJp9hMYdvogK2hAUiHsGeiybwaWe36bwtRQ3UTpYV7YuZ8FV5j9nauFCWwcjM6dTzpL5s2N79Rp5unwdMvc8ZKU12.8785 142.33 21.8954C147.826 27.3001 137.509 39.6229 137.509 39.6229C137.509 39.6229 150.143 39.5058 144.411 46.2437Z" fill="#F5F5F5"/>
    <path d="M166.15 355.844C248.693 355.844 315.607 351.278 315.607 345.647C315.607 340.015 248.693 335.47wQbNPTDJp9hMYdvogK2hAUiHsGeiybwaWe36bwtRQ3UTpYV7YuZ8FV5j9nauFCWwcjM6dTzpL5s2N79Rp5unwdMvc8ZKU 166.15 355.844Z" fill="#F5F5F5"/>
    <path d="M126.218 276.638C121.907 276.747 117.805 278.824 114.79 282.47wQbNPTDJp9hMYdvogK2hAUiHsGeiybwaWe36bwtRQ3UTpYV7YuZ8FV5j9nauFCWwcjM6dTzpL5s2N79Rp5unwdMvc8ZKU377C117.805 312.978 121.907 315.055 126.218 315.164H129.517V276.638H126.218Z" fill="#263238"/>
    <path d="M246.321 276.638C244.126 276.582 241.944 277.04 239.903 277.983C237.861 278.926 236.002 280.336 234.47wQbNPTDJp9hMYdvogK2hAUiHsGeiybwaWe36bwtRQ3UTpYV7YuZ8FV5j9nauFCWwcjM6dTzpL5s2N79Rp5unwdMvc8ZKU47wQbNPTDJp9hMYdvogK2hAUiHsGeiybwaWe36bwtRQ3UTpYV7YuZ8FV5j9nauFCWwcjM6dTzpL5s2N79Rp5unwdMvc8ZKU.47wQbNPTDJp9hMYdvogK2hAUiHsGeiybwaWe36bwtRQ3UTpYV7YuZ8FV5j9nauFCWwcjM6dTzpL5s2N79Rp5unwdMvc8ZKU321 315.164H249.613V276.638H246.321Z" fill="#263238"/>
    <path d="M191.896 315.155C200.998 315.155 208.377 306.533 208.377 295.897C208.377 285.26 200.998 276.638 191.896 276.638C182.795 276.638 175.416 285.26 175.416 295.897C175.416 306.533 182.795 315.155 191.896 315.155Z" fill="#263238"/>
    <path d="M71.7871 315.155C80.8889 315.155 88.2675 306.533 88.2675 295.897C88.2675 285.26 80.8889 276.638 71.7871 276.638C62.6852 276.638 55.3066 285.26 55.3066 295.897C55.3066 306.533 62.6852 315.155 71.7871 315.155Z" fill="#263238"/>
    <path d="M209.797 193.793H147.26V286.646H209.797V193.793Z" fill="#6659B3"/>
    <path opacity="0.2" d="M209.797 193.793H147.26V286.646H209.797V193.793Z" fill="black"/>
    <path d="M272.925 216.882L272.338 217.466L274.827 220.881L275.414 220.297L272.925 216.882Z" fill="#6659B3"/>
    <path d="M262.78 202.949L262.193 203.533L269.948 214.166L270.535 213.582L262.78 202.949Z" fill="#6659B3"/>
    <path d="M209.799 286.637H287.47wQbNPTDJp9hMYdvogK2hAUiHsGeiybwaWe36bwtRQ3UTpYV7YuZ8FV5j9nauFCWwcjM6dTzpL5s2N79Rp5unwdMvc8ZKU.982 198.662 251.395 196.727C247.808 194.793 243.904 193.791 239.954 193.793H209.799V286.637Z" fill="#6659B3"/>
    <path d="M222.523 242.516V208.376C222.523 207.641 222.648 206.913 222.889 206.233C223.13 205.554 223.47wQbNPTDJp9hMYdvogK2hAUiHsGeiybwaWe36bwtRQ3UTpYV7YuZ8FV5j9nauFCWwcjM6dTzpL5s2N79Rp5unwdMvc8ZKU.689 202.781 227.318 202.782H234.757C238.65 202.782 242.496 203.77 246.031 205.676C249.566 207.583 252.704 210.364 255.23 213.826L273.506 238.886C274.24 239.891 274.645 241.168 274.647 242.489C274.647 243.973 274.143 245.397 273.246 246.448C272.348 247.47wQbNPTDJp9hMYdvogK2hAUiHsGeiybwaWe36bwtRQ3UTpYV7YuZ8FV5j9nauFCWwcjM6dTzpL5s2N79Rp5unwdMvc8ZKU 245.416 222.53 243.997 222.523 242.516Z" fill="white"/>
    <path d="M287.47wQbNPTDJp9hMYdvogK2hAUiHsGeiybwaWe36bwtRQ3UTpYV7YuZ8FV5j9nauFCWwcjM6dTzpL5s2N79Rp5unwdMvc8ZKU47wQbNPTDJp9hMYdvogK2hAUiHsGeiybwaWe36bwtRQ3UTpYV7YuZ8FV5j9nauFCWwcjM6dTzpL5s2N79Rp5unwdMvc8ZKU024 275.281 270.495L276.9 267.108C277.156 266.564 277.532 266.11 277.988 265.793C278.445 265.476 278.966 265.308 279.498 265.306H287.468V275.665Z" fill="white"/>
    <path d="M195.991 178.191H44.8379V286.637H195.991V178.191Z" fill="#6659B3"/>
    <path opacity="0.6" d="M195.991 178.191H44.8379V286.637H195.991V178.191Z" fill="white"/>
    <path opacity="0.5" d="M111.492 270.108H85.7695V276.638H111.492V270.108Z" fill="#6659B3"/>
    <path opacity="0.5" d="M51.8987 270.108H44.8379V276.638H51.8987V270.108Z" fill="#6659B3"/>
    <path opacity="0.4" d="M97.0541 178.191H44.8379V286.637H97.0541V178.191Z" fill="#6659B3"/>
    <path opacity="0.4" d="M68.3031 178.191H67.4629V286.637H68.3031V178.191Z" fill="#6659B3"/>
    <path d="M288.223 286.637H44.0845C43.3863 286.637 42.8203 287.298 47wQbNPTDJp9hMYdvogK2hAUiHsGeiybwaWe36bwtRQ3UTpYV7YuZ8FV5j9nauFCWwcjM6dTzpL5s2N79Rp5unwdMvc8ZKU 289.487 293.497 289.487 292.681V288.114C289.487 287.298 288.921 286.637 288.223 286.637Z" fill="#263238"/>
    <path d="M249.629 315.155C258.731 315.155 266.109 306.533 266.109 295.897C266.109 285.26 258.731 276.638 249.629 276.638C240.527 276.638 233.148 285.26 233.148 295.897C233.148 306.533 240.527 315.155 249.629 315.155Z" fill="#263238"/>
    <path d="M249.626 308.291C255.47wQbNPTDJp9hMYdvogK2hAUiHsGeiybwaWe36bwtRQ3UTpYV7YuZ8FV5j9nauFCWwcjM6dTzpL5s2N79Rp5unwdMvc8ZKU768 283.501 239.02 289.05 239.02 295.896C239.02 302.741 243.768 308.291 249.626 308.291Z" fill="white"/>
    <path d="M129.518 315.155C138.619 315.155 145.998 306.533 145.998 295.897C145.998 285.26 138.619 276.638 129.518 276.638C120.416 276.638 113.037 285.26 113.037 295.897C113.037 306.533 120.416 315.155 129.518 315.155Z" fill="#263238"/>
    <path d="M129.515 308.291C135.373 308.291 140.122 302.741 140.122 295.896C140.122 289.05 135.373 283.501 129.515 283.501C123.657 283.501 118.908 289.05 118.908 295.896C118.908 302.741 123.657 308.291 129.515 308.291Z" fill="white"/>
    <path d="M150.993 337.801L144.441 337.684L142.66 319.93L149.205 320.056L150.993 337.801Z" fill="#6659B3"/>
    <path d="M144.269 336.801L151.47wQbNPTDJp9hMYdvogK2hAUiHsGeiybwaWe36bwtRQ3UTpYV7YuZ8FV5j9nauFCWwcjM6dTzpL5s2N79Rp5unwdMvc8ZKU915 337.459L152.54 344.287C152.552 344.47wQbNPTDJp9hMYdvogK2hAUiHsGeiybwaWe36bwtRQ3UTpYV7YuZ8FV5j9nauFCWwcjM6dTzpL5s2N79Rp5unwdMvc8ZKU364 152.03 345.47wQbNPTDJp9hMYdvogK2hAUiHsGeiybwaWe36bwtRQ3UTpYV7YuZ8FV5j9nauFCWwcjM6dTzpL5s2N79Rp5unwdMvc8ZKU287 141.949 345.233C138.164 345.161 138.534 345.341 134.094 345.233C131.411 345.188 131.01 341.99 132.136 341.729C137.377 340.513 137.902 340.449 142.635 337.342C143.129 336.996 143.693 336.81 144.269 336.801Z" fill="#263238"/>
    <path d="M137.872 108.983C135.729 114.334 133.47wQbNPTDJp9hMYdvogK2hAUiHsGeiybwaWe36bwtRQ3UTpYV7YuZ8FV5j9nauFCWwcjM6dTzpL5s2N79Rp5unwdMvc8ZKU.47wQbNPTDJp9hMYdvogK2hAUiHsGeiybwaWe36bwtRQ3UTpYV7YuZ8FV5j9nauFCWwcjM6dTzpL5s2N79Rp5unwdMvc8ZKU.326 140.506 120.981 140.945 120.613 141.358C120.371 141.635 120.113 141.894 119.842 142.132C119.545 142.398 119.231 142.636 118.902 142.844C118.181 143.311 117.4 143.637 116.589 143.808C115.115 144.092 113.601 143.88 112.226 143.195C111.28 142.715 110.396 142.085 109.598 141.322C108.395 140.16 107.322 138.826 106.47wQbNPTDJp9hMYdvogK2hAUiHsGeiybwaWe36bwtRQ3UTpYV7YuZ8FV5j9nauFCWwcjM6dTzpL5s2N79Rp5unwdMvc8ZKU726 125.306C99.735 122.59 98.8678 119.814 98.1278 116.991C97.946 116.264 97.9943 115.47wQbNPTDJp9hMYdvogK2hAUiHsGeiybwaWe36bwtRQ3UTpYV7YuZ8FV5j9nauFCWwcjM6dTzpL5s2N79Rp5unwdMvc8ZKU868 101.47wQbNPTDJp9hMYdvogK2hAUiHsGeiybwaWe36bwtRQ3UTpYV7YuZ8FV5j9nauFCWwcjM6dTzpL5s2N79Rp5unwdMvc8ZKU094 123.658 110.939 127.99C111.605 128.976 112.315 129.92 113.067 130.818C113.669 131.559 114.338 132.22 115.063 132.791C115.341 132.98 115.564 133.07 115.58 133.034C115.595 132.998 115.302 132.827 114.809 132.89C114.48 132.956 114.166 133.096 113.884 133.305C113.845 133.305 113.807 133.368 114.03 133.007L114.508 132.206C117.081 127.708 119.455 123.06 121.623 118.279C123.874 113.47wQbNPTDJp9hMYdvogK2hAUiHsGeiybwaWe36bwtRQ3UTpYV7YuZ8FV5j9nauFCWwcjM6dTzpL5s2N79Rp5unwdMvc8ZKU635 99.751 134.118 99.8558 135.405 100.588C136.692 101.32 137.678 102.62 138.145 104.201C138.611 105.782 138.522 107.515 137.895 109.019L137.872 108.983Z" fill="#6659B3"/>
    <path d="M103.237 116.631L101.47wQbNPTDJp9hMYdvogK2hAUiHsGeiybwaWe36bwtRQ3UTpYV7YuZ8FV5j9nauFCWwcjM6dTzpL5s2N79Rp5unwdMvc8ZKU263238"/>
    <path d="M102.876 114.532C102.876 114.532 105.104 117.883 105.651 118.802C104.88 119.703 99.8312 122.684 99.4303 122.405C98.7905 120.27 97.8887 117.451 97.8887 117.451L102.876 114.532Z" fill="#263238"/>
    <path d="M96.3562 102.687L93.8356 105.515C93.6361 105.746 93.47wQbNPTDJp9hMYdvogK2hAUiHsGeiybwaWe36bwtRQ3UTpYV7YuZ8FV5j9nauFCWwcjM6dTzpL5s2N79Rp5unwdMvc8ZKU47wQbNPTDJp9hMYdvogK2hAUiHsGeiybwaWe36bwtRQ3UTpYV7YuZ8FV5j9nauFCWwcjM6dTzpL5s2N79Rp5unwdMvc8ZKU 102.248 97.5704 102.22C97.3512 102.192 97.1294 102.219 96.9199 102.3C96.7105 102.38 96.5182 102.512 96.3562 102.687Z" fill="#263238"/>
    <path d="M100.24 112.641C100.001 110.911 101.47wQbNPTDJp9hMYdvogK2hAUiHsGeiybwaWe36bwtRQ3UTpYV7YuZ8FV5j9nauFCWwcjM6dTzpL5s2N79Rp5unwdMvc8ZKU.018 115.694 102.499 115.514C100.98 115.334 100.626 115.649 100.24 112.641Z" fill="#263238"/>
    <path opacity="0.2" d="M142.66 319.939L143.577 329.091L150.13 329.208L149.212 320.056L142.66 319.939Z" fill="black"/>
    <path d="M132.579 98.7595C145.036 96.9579 157.092 98.9036 163.659 100.39C164.321 100.541 164.95 100.845 165.511 101.283C166.071 101.722 166.551 102.286 166.922 102.943C167.294 103.601 167.55 104.338 167.675 105.112C167.801 105.886 167.793 106.681 167.652 107.47wQbNPTDJp9hMYdvogK2hAUiHsGeiybwaWe36bwtRQ3UTpYV7YuZ8FV5j9nauFCWwcjM6dTzpL5s2N79Rp5unwdMvc8ZKU605 128.132 103.912C128.276 102.597 128.793 101.376 129.598 100.443C130.404 99.5095 131.453 98.9171 132.579 98.7595Z" fill="#6659B3"/>
    <path d="M154.7 79.47wQbNPTDJp9hMYdvogK2hAUiHsGeiybwaWe36bwtRQ3UTpYV7YuZ8FV5j9nauFCWwcjM6dTzpL5s2N79Rp5unwdMvc8ZKU849C137.958 104.588 139.099 100.12 140.679 97.8407C146.075 96.8138 146.075 92.1838 145.304 87.77L154.7 79.4647Z" fill="#FFB573"/>
    <path opacity="0.2" d="M150.862 82.8516L145.281 87.806C145.47wQbNPTDJp9hMYdvogK2hAUiHsGeiybwaWe36bwtRQ3UTpYV7YuZ8FV5j9nauFCWwcjM6dTzpL5s2N79Rp5unwdMvc8ZKU033 84.9069 151.028 83.8658 150.862 82.8516Z" fill="black"/>
    <path d="M156.288 71.1144C155.463 78.6359 155.317 83.0948 151.825 86.689C146.583 92.0937 138.79 87.9411 137.665 80.2664C136.655 73.3483 138.166 62.2506 144.672 59.7464C146.112 59.203 147.647 59.0954 149.133 59.47wQbNPTDJp9hMYdvogK2hAUiHsGeiybwaWe36bwtRQ3UTpYV7YuZ8FV5j9nauFCWwcjM6dTzpL5s2N79Rp5unwdMvc8ZKU9273C156.314 67.5772 156.493 69.3618 156.288 71.1144Z" fill="#FFB573"/>
    <path d="M156.666 77.6451C154.123 79.47wQbNPTDJp9hMYdvogK2hAUiHsGeiybwaWe36bwtRQ3UTpYV7YuZ8FV5j9nauFCWwcjM6dTzpL5s2N79Rp5unwdMvc8ZKU.196 151.502 66.47wQbNPTDJp9hMYdvogK2hAUiHsGeiybwaWe36bwtRQ3UTpYV7YuZ8FV5j9nauFCWwcjM6dTzpL5s2N79Rp5unwdMvc8ZKU.954 149.004 57.6657C153.891 58.3773 157.09 60.8634 156.628 64.3405C159.357 63.827 160.613 69.2228 156.666 77.6451Z" fill="#263238"/>
    <path d="M158.94 78.7981C158.509 79.598 157.946 80.2902 157.285 80.8344C156.623 81.3787 155.876 81.7642 155.086 81.9688C152.974 82.5003 152.003 80.2574 152.704 78.0054C153.313 75.9696 155.148 73.2492 157.229 73.7266C157.682 73.8369 158.104 74.0771 158.47wQbNPTDJp9hMYdvogK2hAUiHsGeiybwaWe36bwtRQ3UTpYV7YuZ8FV5j9nauFCWwcjM6dTzpL5s2N79Rp5unwdMvc8ZKU43 77.307C159.375 77.8438 159.207 78.3562 158.94 78.7981Z" fill="#FFB573"/>
    <path d="M148.417 243.336C148.155 204.854 155.44 167.895 155.44 167.895L128.137 167.382C128.137 167.382 131.274 222.96 132.369 246.245C133.502 270.45 140.987 327.316 140.987 327.316L152.071 327.505C152.071 327.505 149.959 273.71 148.417 243.336Z" fill="#6659B3"/>
    <path opacity="0.4" d="M148.417 243.336C148.155 204.854 155.44 167.895 155.44 167.895L128.137 167.382C128.137 167.382 131.274 222.96 132.369 246.245C133.502 270.45 140.987 327.316 140.987 327.316L152.071 327.505C152.071 327.505 149.959 273.71 148.417 243.336Z" fill="black"/>
    <path opacity="0.2" d="M149.47wQbNPTDJp9hMYdvogK2hAUiHsGeiybwaWe36bwtRQ3UTpYV7YuZ8FV5j9nauFCWwcjM6dTzpL5s2N79Rp5unwdMvc8ZKU36 187.01L149.485 189.073Z" fill="black"/>
    <path d="M139.508 322.271L140.225 327.55L152.481 327.793L153.175 322.803L139.508 322.271Z" fill="#263238"/>
    <path d="M147.649 72.3755C147.649 72.988 147.31 73.47wQbNPTDJp9hMYdvogK2hAUiHsGeiybwaWe36bwtRQ3UTpYV7YuZ8FV5j9nauFCWwcjM6dTzpL5s2N79Rp5unwdMvc8ZKU1774 147.094 71.2045C147.441 71.2315 147.711 71.7539 147.649 72.3755Z" fill="#263238"/>
    <path d="M140.856 71.47wQbNPTDJp9hMYdvogK2hAUiHsGeiybwaWe36bwtRQ3UTpYV7YuZ8FV5j9nauFCWwcjM6dTzpL5s2N79Rp5unwdMvc8ZKU3757C139.654 70.7632 139.954 70.2858 140.301 70.3128C140.648 70.3398 140.895 70.8713 140.856 71.4838Z" fill="#263238"/>
    <path d="M142.251 71.9792C141.519 73.8059 140.572 75.5038 139.47wQbNPTDJp9hMYdvogK2hAUiHsGeiybwaWe36bwtRQ3UTpYV7YuZ8FV5j9nauFCWwcjM6dTzpL5s2N79Rp5unwdMvc8ZKU77.7983L142.251 71.9792Z" fill="#ED893E"/>
    <path d="M144.071 79.9781C144.664 79.9442 145.244 79.7665 145.775 79.47wQbNPTDJp9hMYdvogK2hAUiHsGeiybwaWe36bwtRQ3UTpYV7YuZ8FV5j9nauFCWwcjM6dTzpL5s2N79Rp5unwdMvc8ZKU.043C147.178 77.9957 147.156 77.953 147.123 77.9243C147.091 77.8957 147.049 77.8834 147.009 77.8901C146.968 77.8969 146.932 77.9221 146.907 77.9604C146.47wQbNPTDJp9hMYdvogK2hAUiHsGeiybwaWe36bwtRQ3UTpYV7YuZ8FV5j9nauFCWwcjM6dTzpL5s2N79Rp5unwdMvc8ZKU 79.5576 143.352 79.5578 143.328 79.5642C143.305 79.5706 143.283 79.5831 143.264 79.6009C143.245 79.6186 143.23 79.6411 143.219 79.6666C143.209 79.6921 143.203 79.7201 143.203 79.7484C143.203 79.7768 143.209 79.8047 143.219 79.8303C143.23 79.8558 143.245 79.8783 143.264 79.896C143.283 79.9137 143.305 79.9262 143.328 79.9327C143.352 79.9391 143.376 79.9392 143.4 79.9331C143.623 79.9654 143.847 79.9804 144.071 79.9781Z" fill="#263238"/>
    <path d="M148.755 70.3127C148.807 70.3117 148.858 70.2929 148.902 70.2587C148.936 70.2323 148.965 70.1983 148.988 70.1586C149.011 70.1188 149.027 70.0742 149.034 70.0272C149.042 69.9803 149.042 69.9319 149.034 69.8851C149.026 69.8382 149.009 69.7937 148.986 69.7542C148.728 69.2615 148.371 68.8488 147.947 68.5509C147.523 68.253 147.044 68.0787 146.551 68.0427C146.469 68.0427 146.39 68.0807 146.332 68.1483C146.275 68.2158 146.242 68.3075 146.242 68.403C146.242 68.501 146.275 68.5949 146.335 68.6642C146.394 68.7335 146.47wQbNPTDJp9hMYdvogK2hAUiHsGeiybwaWe36bwtRQ3UTpYV7YuZ8FV5j9nauFCWwcjM6dTzpL5s2N79Rp5unwdMvc8ZKU.266 69.7614 148.47 70.1506C148.5 70.2053 148.543 70.2492 148.593 70.2778C148.644 70.3063 148.699 70.3184 148.755 70.3127Z" fill="#263238"/>
    <path d="M137.935 68.6282C137.985 68.6366 138.036 68.6303 138.083 68.6099C138.13 68.5894 138.172 68.5554 138.205 68.5111C138.47wQbNPTDJp9hMYdvogK2hAUiHsGeiybwaWe36bwtRQ3UTpYV7YuZ8FV5j9nauFCWwcjM6dTzpL5s2N79Rp5unwdMvc8ZKU337 67.47wQbNPTDJp9hMYdvogK2hAUiHsGeiybwaWe36bwtRQ3UTpYV7YuZ8FV5j9nauFCWwcjM6dTzpL5s2N79Rp5unwdMvc8ZKU.1036 140.605 67.0554 140.594 67.0093C140.583 66.9631 140.565 66.92 140.54 66.8822C140.515 66.8445 140.47wQbNPTDJp9hMYdvogK2hAUiHsGeiybwaWe36bwtRQ3UTpYV7YuZ8FV5j9nauFCWwcjM6dTzpL5s2N79Rp5unwdMvc8ZKU352 66.7979 138.9 67.022C138.47wQbNPTDJp9hMYdvogK2hAUiHsGeiybwaWe36bwtRQ3UTpYV7YuZ8FV5j9nauFCWwcjM6dTzpL5s2N79Rp5unwdMvc8ZKU672 68.3896 137.711 68.4769 137.773 68.5381C137.817 68.5889 137.874 68.6206 137.935 68.6282Z" fill="#263238"/>
    <path d="M185.697 337.801L179.137 337.684L176.439 319.93L182.999 320.056L185.697 337.801Z" fill="#6659B3"/>
    <path d="M178.782 336.801L185.92 336.928C186.047 336.928 186.17 336.982 186.266 337.08C186.362 337.177 186.47wQbNPTDJp9hMYdvogK2hAUiHsGeiybwaWe36bwtRQ3UTpYV7YuZ8FV5j9nauFCWwcjM6dTzpL5s2N79Rp5unwdMvc8ZKU188 344.957 187.114 345.108 187.016 345.236C186.918 345.363 186.798 345.464 186.663 345.532C186.528 345.6 186.383 345.633 186.236 345.629C183.661 345.53 182.852 345.287 179.614 345.233C175.822 345.161 177.579 345.341 173.132 345.233C170.47wQbNPTDJp9hMYdvogK2hAUiHsGeiybwaWe36bwtRQ3UTpYV7YuZ8FV5j9nauFCWwcjM6dTzpL5s2N79Rp5unwdMvc8ZKU.622 336.922 178.203 336.728 178.782 336.801Z" fill="#263238"/>
    <path d="M180.145 337.603C179.012 337.648 178.403 337.603 178.11 337C177.817 336.396 176.792 334.64 176.869 333.982C176.946 333.324 181.548 332.784 182.003 333.847C182.458 334.91 182.458 337.531 180.145 337.603Z" fill="#263238"/>
    <path d="M144.024 337.603C143.315 337.648 142.937 337.603 142.768 337C142.47wQbNPTDJp9hMYdvogK2hAUiHsGeiybwaWe36bwtRQ3UTpYV7YuZ8FV5j9nauFCWwcjM6dTzpL5s2N79Rp5unwdMvc8ZKU527 334.91 145.465 337.531 144.024 337.603Z" fill="#263238"/>
    <path opacity="0.2" d="M176.439 319.939L177.835 329.091L184.394 329.208L182.999 320.056L176.439 319.939Z" fill="black"/>
    <path d="M174.47wQbNPTDJp9hMYdvogK2hAUiHsGeiybwaWe36bwtRQ3UTpYV7YuZ8FV5j9nauFCWwcjM6dTzpL5s2N79Rp5unwdMvc8ZKU.47wQbNPTDJp9hMYdvogK2hAUiHsGeiybwaWe36bwtRQ3UTpYV7YuZ8FV5j9nauFCWwcjM6dTzpL5s2N79Rp5unwdMvc8ZKU325.182 180.911 265.865 174.482 238.787Z" fill="#6659B3"/>
    <path opacity="0.4" d="M174.47wQbNPTDJp9hMYdvogK2hAUiHsGeiybwaWe36bwtRQ3UTpYV7YuZ8FV5j9nauFCWwcjM6dTzpL5s2N79Rp5unwdMvc8ZKU.47wQbNPTDJp9hMYdvogK2hAUiHsGeiybwaWe36bwtRQ3UTpYV7YuZ8FV5j9nauFCWwcjM6dTzpL5s2N79Rp5unwdMvc8ZKU325.182 180.911 265.865 174.482 238.787Z" fill="black"/>
    <path d="M173.395 322.271L174.25 327.55L186.106 327.793L186.63 322.803L173.395 322.271Z" fill="#263238"/>
    <path d="M147.777 110.47wQbNPTDJp9hMYdvogK2hAUiHsGeiybwaWe36bwtRQ3UTpYV7YuZ8FV5j9nauFCWwcjM6dTzpL5s2N79Rp5unwdMvc8ZKU0389C156.08 98.2384 156.71 98.5415 157.297 98.9397C157.836 104.921 151.5 109.038 147.777 110.416Z" fill="white"/>
    <path d="M142.392 104.705C140.343 105.819 138.662 107.685 137.605 110.019C133.805 102.092 139.147 97.5164 139.147 97.5164C139.738 97.3213 140.358 97.2722 140.966 97.3723C139.941 100.021 141.12 103.507 142.392 104.705Z" fill="white"/>
    <path d="M196.619 113.867L138.594 124.352L145.096 173.491L203.121 163.006L196.619 113.867Z" fill="#6659B3"/>
    <path opacity="0.9" d="M196.619 113.867L138.594 124.352L145.096 173.491L203.121 163.006L196.619 113.867Z" fill="#F6BD75"/>
    <path opacity="0.2" d="M196.623 113.862L166.373 119.329L172.875 168.468L203.126 163.002L196.623 113.862Z" fill="#6659B3"/>
    <path opacity="0.3" d="M154.329 157.979L147.047 159.295L148.145 167.591L155.427 166.275L154.329 157.979Z" fill="#6659B3"/>
    <path opacity="0.3" d="M152.966 147.686L145.684 149.002L146.781 157.299L154.064 155.983L152.966 147.686Z" fill="#F6BD75"/>
    <path opacity="0.5" d="M157.298 120.976L147.029 122.831L147.577 126.971L157.846 125.115L157.298 120.976Z" fill="#6659B3"/>
    <path opacity="0.5" d="M189.415 115.162L182.201 116.466L182.749 120.605L189.963 119.301L189.415 115.162Z" fill="#6659B3"/>
    <path d="M165.553 101.318C170.001 103.801 174.29 106.655 178.387 109.857C180.538 111.504 182.598 113.31 184.554 115.262C185.625 116.345 186.635 117.51 187.575 118.748C188.114 119.478 188.611 120.248 189.063 121.054C189.646 122.077 190.105 123.19 190.427 124.36C190.648 125.153 190.778 125.977 190.813 126.81C190.824 126.954 190.824 127.099 190.813 127.242V127.549V128.17L190.774 129.413L190.682 130.575C190.62 131.35 190.551 132.125 190.47wQbNPTDJp9hMYdvogK2hAUiHsGeiybwaWe36bwtRQ3UTpYV7YuZ8FV5j9nauFCWwcjM6dTzpL5s2N79Rp5unwdMvc8ZKU.531 143.47wQbNPTDJp9hMYdvogK2hAUiHsGeiybwaWe36bwtRQ3UTpYV7YuZ8FV5j9nauFCWwcjM6dTzpL5s2N79Rp5unwdMvc8ZKU174C182.041 161.517 181.371 161.601 180.739 161.41C180.108 161.22 179.557 160.767 179.189 160.137C178.822 159.508 178.663 158.743 178.742 157.986V157.914C179.289 152.51 179.959 147.051 180.445 141.7C180.715 138.998 180.923 136.358 181.062 133.773C181.108 133.125 181.108 132.503 181.139 131.864C181.17 131.224 181.139 130.611 181.139 130.008V129.107V128.278V127.864V127.657C181.139 127.657 181.139 127.47wQbNPTDJp9hMYdvogK2hAUiHsGeiybwaWe36bwtRQ3UTpYV7YuZ8FV5j9nauFCWwcjM6dTzpL5s2N79Rp5unwdMvc8ZKU9 180.869 127.657C180.63 127.336 180.373 127.035 180.098 126.756C179.421 125.984 178.702 125.262 177.948 124.594C176.313 123.144 174.479 121.721 172.59 120.36C168.806 117.658 164.736 115.064 160.766 112.605H160.712C159.47wQbNPTDJp9hMYdvogK2hAUiHsGeiybwaWe36bwtRQ3UTpYV7YuZ8FV5j9nauFCWwcjM6dTzpL5s2N79Rp5unwdMvc8ZKU.095 102.764 160.188 101.644 161.513 101.106C162.837 100.568 164.289 100.654 165.56 101.345L165.553 101.318Z" fill="#6659B3"/>
    <path d="M179.306 156.545L175.375 162.778L182.837 165.967C182.837 165.967 185.812 159.815 183.268 157.446L179.306 156.545Z" fill="#263238"/>
    <path d="M176.36 170.742L179.135 171.345C179.67 171.47wQbNPTDJp9hMYdvogK2hAUiHsGeiybwaWe36bwtRQ3UTpYV7YuZ8FV5j9nauFCWwcjM6dTzpL5s2N79Rp5unwdMvc8ZKU012L175.397 162.779L174.549 167.562C174.429 168.264 174.552 168.994 174.891 169.59C175.231 170.186 175.759 170.6 176.36 170.742Z" fill="#263238"/>
    <path d="M178.66 158.275C178.66 158.275 178.799 154.032 178.891 152.924C179.978 152.843 185.482 154.329 185.621 154.852C184.942 156.977 184.079 159.806 184.079 159.806L178.66 158.275Z" fill="#263238"/>
    <path d="M159.834 69.7903C156.111 69.3039 140.817 64.9531 139.399 63.2326C139.299 59.9087 140.941 56.5488 141.95 55.7921C144.764 53.6303 150.954 53.5492 152.919 54.1977C154.885 54.8463 160.265 58.0441 161.16 61.1248C161.853 63.5659 159.834 69.7903 159.834 69.7903Z" fill="#6659B3"/>
    <path d="M144.392 62.1966C139.698 61.3409 135.235 61.7192 133.654 64.4936C131.889 67.5923 137.701 62.9893 141.17 64.971C146.974 68.3039 145.595 68.8264 154.39 68.5742C149.865 65.8898 149.834 63.1875 144.392 62.1966Z" fill="#6659B3"/>
    <path opacity="0.6" d="M144.392 62.1966C139.698 61.3409 135.235 61.7192 133.654 64.4936C131.889 67.5923 137.701 62.9893 141.17 64.971C146.974 68.3039 145.595 68.8264 154.39 68.5742C149.865 65.8898 149.834 63.1875 144.392 62.1966Z" fill="white"/>
</svg>
